<svg width="1389" height="482" viewBox="0 0 1389 482" fill="none" xmlns="http://www.w3.org/2000/svg">
<path d="M547.218 481.943H423.103V168.769L301.152 481.943H246.311L125.082 168.769V481.943H0.967285V0.63623H173.429L273.732 261.855L374.755 0.63623H547.218V481.943Z" fill="#EBFFFF"/>
<path d="M1101.37 481.943H960.66L936.847 412.669H747.067L723.254 481.943H582.542L763.663 0.63623H919.529L1101.37 481.943ZM902.932 304.429L841.596 123.308L780.26 304.429H902.932Z" fill="#EBFFFF"/>
<path d="M1454.42 481.943H1136.92V0.63623H1261.04V373.703H1454.42V481.943Z" fill="#EBFFFF"/>
<path d="M1642.98 481.943H1518.86V0.63623H1871.72V108.876H1642.98V183.922H1866.67V292.162H1642.98V481.943Z" fill="#EBFFFF"/>
<path d="M2062.97 481.943H1938.85V0.63623H2062.97V481.943Z" fill="#EBFFFF"/>
</svg>
