<svg width="12" height="13" viewBox="0 0 12 13" fill="none" xmlns="http://www.w3.org/2000/svg">
<path fill-rule="evenodd" clip-rule="evenodd" d="M11.6497 10.0484C11.7916 9.68311 11.8888 9.26578 11.9165 8.65451C11.9446 8.04218 11.9512 7.84656 11.9512 6.28711C11.9512 4.72766 11.9446 4.53204 11.9167 3.91971C11.8888 3.30844 11.7917 2.89111 11.6497 2.52582C11.5056 2.14267 11.2795 1.79568 10.9874 1.50882C10.7006 1.21661 10.3534 0.990479 9.97028 0.846283C9.60498 0.704529 9.18765 0.607483 8.57639 0.579712C7.96405 0.551636 7.76843 0.544922 6.20898 0.544922C4.64954 0.544922 4.45392 0.551636 3.84158 0.579559C3.23032 0.607483 2.81299 0.704529 2.44769 0.846436C2.06454 0.990631 1.71741 1.21661 1.43069 1.50882C1.13849 1.79553 0.912354 2.14267 0.768158 2.52582C0.626251 2.89111 0.529205 3.30844 0.501434 3.91971C0.473358 4.53204 0.466797 4.72766 0.466797 6.28711C0.466797 7.84656 0.473358 8.04218 0.501587 8.65466C0.529358 9.26578 0.626556 9.68326 0.768463 10.0484C0.912659 10.4315 1.13864 10.7787 1.43069 11.0654C1.71756 11.3576 2.06454 11.5836 2.44785 11.7278C2.81299 11.8697 3.23047 11.9667 3.84158 11.9947C4.45407 12.0226 4.64954 12.0293 6.20914 12.0293C7.76859 12.0293 7.9642 12.0226 8.57654 11.9947C9.18765 11.9667 9.60513 11.8697 9.97028 11.7278C10.7416 11.4295 11.3513 10.8197 11.6497 10.0484ZM10.6853 2.90059C10.5933 2.65126 10.4465 2.42558 10.2558 2.24034C10.0705 2.04961 9.84501 1.90282 9.59553 1.81081C9.3932 1.73222 9.08924 1.63869 8.5294 1.61321C7.92377 1.58559 7.7422 1.57964 6.20899 1.57964C4.67564 1.57964 4.49406 1.58543 3.88859 1.61305C3.32874 1.63869 3.02463 1.73222 2.82246 1.81081C2.57297 1.90282 2.3473 2.04961 2.16221 2.24034C1.97147 2.42558 1.82468 2.65111 1.73252 2.90059C1.65394 3.10292 1.5604 3.40703 1.53492 3.96687C1.5073 4.57234 1.50135 4.75392 1.50135 6.28728C1.50135 7.82048 1.5073 8.00206 1.53492 8.60768C1.5604 9.16753 1.65394 9.47148 1.73252 9.67381C1.82468 9.9233 1.97132 10.1488 2.16206 10.3341C2.3473 10.5248 2.57282 10.6716 2.8223 10.7636C3.02463 10.8423 3.32874 10.9359 3.88859 10.9614C4.49406 10.989 4.67548 10.9948 6.20884 10.9948C7.74235 10.9948 7.92393 10.989 8.52924 10.9614C9.08909 10.9359 9.3932 10.8423 9.59553 10.7636C10.0963 10.5704 10.4921 10.1746 10.6853 9.67381C10.7639 9.47148 10.8574 9.16753 10.8831 8.60768C10.9107 8.00206 10.9165 7.82048 10.9165 6.28728C10.9165 4.75392 10.9107 4.57234 10.8831 3.96687C10.8576 3.40703 10.764 3.10292 10.6853 2.90059ZM6.20899 9.23573C4.58042 9.23573 3.26023 7.9157 3.26023 6.28713C3.26023 4.65855 4.58042 3.33852 6.20899 3.33852C7.83741 3.33852 9.1576 4.65855 9.1576 6.28713C9.1576 7.9157 7.83741 9.23573 6.20899 9.23573ZM9.27418 3.91103C8.89362 3.91103 8.58509 3.60249 8.58509 3.22194C8.58509 2.84139 8.89362 2.53285 9.27418 2.53285C9.65473 2.53285 9.96326 2.84139 9.96326 3.22194C9.96311 3.60249 9.65473 3.91103 9.27418 3.91103ZM8.12305 6.28711C8.12305 7.34424 7.26612 8.20117 6.20899 8.20117C5.15186 8.20117 4.29493 7.34424 4.29493 6.28711C4.29493 5.22998 5.15186 4.37305 6.20899 4.37305C7.26612 4.37305 8.12305 5.22998 8.12305 6.28711Z" fill="white"/>
</svg>
