<svg width="61" height="18" viewBox="0 0 61 18" fill="none" xmlns="http://www.w3.org/2000/svg">
<path d="M8.67496 17.1318V13.9109H8.11981V16.1407L6.50044 13.9109H5.93213V17.1318H6.48728V14.8283L8.13736 17.1318H8.67496ZM14.0377 17.1318L12.7936 13.9109H12.1002L10.8583 17.1318H11.488L11.7206 16.509H13.1732L13.4058 17.1318H14.0377ZM13.0174 16.0113H11.8786L12.4469 14.4756L13.0174 16.0113ZM16.7696 17.1318V13.9109H16.2145V17.1318H16.7696ZM21.1932 17.1318V16.634H19.7977V13.9109H19.2425V17.1318H21.1932ZM26.7755 17.1318C26.5473 16.9086 26.3476 16.701 26.1567 16.5001C26.3432 16.2434 26.4858 15.9577 26.5933 15.6966L26.1918 15.5091C26.1347 15.6966 26.0294 15.9532 25.878 16.1854C25.7727 16.0693 25.6695 15.9443 25.5642 15.8126C25.4743 15.7077 25.3602 15.5671 25.2504 15.4131C25.6454 15.2189 26.0382 15.0069 26.0382 14.5203C26.0382 14.1007 25.6871 13.8641 25.2614 13.8641C24.7677 13.8641 24.4013 14.1922 24.4013 14.6207C24.4013 14.8439 24.4912 15.0894 24.6251 15.3305C24.2586 15.518 23.9361 15.7747 23.9361 16.2724C23.9361 16.8795 24.3925 17.1898 24.952 17.1898C25.3119 17.1898 25.6015 17.0536 25.8385 16.8505C25.9438 16.9621 26.0426 17.0581 26.1194 17.1318H26.7755ZM25.0178 16.7836C24.7238 16.7836 24.4627 16.5805 24.4627 16.2278C24.4627 15.9577 24.6141 15.7903 24.8248 15.6497C24.9323 15.8082 25.0573 15.9689 25.1758 16.1073C25.2548 16.2144 25.4018 16.384 25.5642 16.5559C25.4018 16.6921 25.2219 16.7836 25.0178 16.7836ZM24.8994 14.6363C24.8994 14.3998 25.0705 14.2346 25.279 14.2346C25.4589 14.2346 25.5971 14.3506 25.5971 14.5493C25.5971 14.8194 25.3558 14.9734 25.0573 15.1185C24.9608 14.9488 24.8994 14.7814 24.8994 14.6363ZM31.2408 17.1318C31.8376 17.1318 32.1602 16.759 32.1602 16.2568C32.1602 15.8662 31.8903 15.5247 31.548 15.4711C31.842 15.4086 32.0987 15.1319 32.0987 14.7323C32.0987 14.2792 31.7806 13.9109 31.1969 13.9109H29.6412V17.1318H31.2408ZM31.0894 15.239H30.1963V14.4087H31.0894C31.3681 14.4087 31.5304 14.5872 31.5304 14.8238C31.5304 15.0694 31.3681 15.239 31.0894 15.239ZM31.1113 16.634H30.1963V15.7367H31.1113C31.4251 15.7367 31.5919 15.9443 31.5919 16.1854C31.5919 16.4644 31.4119 16.634 31.1113 16.634ZM36.7264 17.1318V16.634H35.1137V15.7367H36.6935V15.239H35.1137V14.4087H36.7264V13.9109H34.5585V17.1318H36.7264ZM41.9839 17.1318L40.742 13.9109H40.0486L38.8044 17.1318H39.4364L39.669 16.509H41.1216L41.3542 17.1318H41.9839ZM40.9636 16.0113H39.8247L40.3953 14.4756L40.9636 16.0113ZM45.3916 17.1898C46.3132 17.1898 46.763 16.6541 46.763 15.8573V13.9109H46.1991V15.8416C46.1991 16.355 45.9182 16.6876 45.3916 16.6876C44.865 16.6876 44.5841 16.355 44.5841 15.8416V13.9109H44.0202V15.8573C44.0202 16.6541 44.4766 17.1898 45.3916 17.1898ZM50.5832 17.1318V14.4087H51.5421V13.9109H49.0692V14.4087H50.0281V17.1318H50.5832ZM55.3053 17.1318V15.7948L56.5297 13.9109H55.8934L55.0266 15.2881L54.1577 13.9109H53.5214L54.7501 15.7948V17.1318H55.3053Z" fill="white"/>
<path d="M10.1693 10.4156L6.43681 0.744141H4.35446L0.622009 10.4156H2.51566L3.21563 8.54512H7.57564L8.27561 10.4156H10.1693ZM7.10606 7.05188H3.6852L5.39454 2.44049L7.10606 7.05188ZM23.28 10.4156V0.744141H20.9277L18.3473 7.38446L15.7537 0.744141H13.4036V10.4156H15.0691V2.94716L17.9918 10.4156H18.705L21.6124 2.94716V10.4156H23.28ZM36.0748 10.4156L32.3401 0.744141H30.26L26.5253 10.4156H28.4212L29.1189 8.54512H33.4811L34.1789 10.4156H36.0748ZM33.0116 7.05188H29.5907L31.3 2.44049L33.0116 7.05188ZM45.0515 10.4156V8.92233H40.8605V0.744141H39.1928V10.4156H45.0515ZM50.3923 10.4156V6.2238H55.1385V4.73056H50.3923V2.23737H55.2395V0.744141H48.7247V10.4156H50.3923ZM60.622 10.4156V0.744141H58.9544V10.4156H60.622Z" fill="white"/>
</svg>
