<svg width="13" height="13" viewBox="0 0 13 13" fill="none" xmlns="http://www.w3.org/2000/svg">
<path fill-rule="evenodd" clip-rule="evenodd" d="M6.23126 12.2203H6.2337C9.5322 12.2203 12.2174 9.53616 12.2188 6.23706C12.2194 4.6384 11.5975 3.1351 10.4674 2.00412C9.33749 0.873291 7.83466 0.250122 6.2337 0.249512C2.93475 0.249512 0.249817 2.93338 0.248444 6.23233C0.247986 7.28687 0.52356 8.31622 1.04739 9.22351L0.198242 12.3241L3.371 11.492C4.24518 11.9687 5.22952 12.2199 6.23126 12.2203ZM1.2589 6.23279C1.26012 3.49079 3.49172 1.2601 6.23571 1.2601C7.5643 1.26056 8.81338 1.7786 9.75256 2.71854C10.6917 3.65848 11.2087 4.90787 11.2083 6.23676C11.207 8.97892 8.97543 11.2097 6.23358 11.2097H6.23159C5.33895 11.2094 4.4634 10.9697 3.6997 10.5165L3.51797 10.4088L1.63518 10.9026L2.13781 9.06742L2.01955 8.87927C1.52166 8.0875 1.2586 7.17243 1.2589 6.23279ZM8.15237 9.08176C8.43969 9.03873 9.03708 8.71997 9.16174 8.37085C9.28641 8.02158 9.28641 7.72235 9.24887 7.65994C9.2188 7.60975 9.14846 7.57574 9.04428 7.52538L9.04424 7.52536C9.0189 7.51311 8.99156 7.49989 8.96231 7.48523C8.81277 7.41046 8.0776 7.04868 7.94043 6.99893C7.8034 6.94904 7.70361 6.92401 7.60397 7.0737C7.50433 7.22339 7.21762 7.56015 7.13049 7.65994C7.04321 7.75958 6.95593 7.7721 6.80655 7.69733C6.78203 7.68505 6.7486 7.67054 6.7073 7.65263C6.49664 7.56124 6.0815 7.38115 5.60385 6.95529C5.15936 6.55887 4.85906 6.06922 4.77194 5.91968C4.69399 5.78601 4.75489 5.71342 4.81587 5.64074C4.82317 5.63203 4.83048 5.62332 4.83755 5.6145C4.9262 5.50357 5.16149 5.20298 5.21139 5.10318C5.26113 5.00339 5.23626 4.91611 5.19888 4.84119C5.17389 4.79121 5.03195 4.44582 4.90335 4.13289L4.90325 4.13265L4.90323 4.1326L4.90314 4.13238C4.83944 3.97738 4.77904 3.8304 4.73776 3.73127C4.63065 3.47381 4.522 3.47447 4.4348 3.47501C4.42324 3.47508 4.41205 3.47515 4.4013 3.47461C4.31417 3.47034 4.21438 3.46942 4.11474 3.46942C4.0151 3.46942 3.85305 3.50681 3.71587 3.6565C3.70713 3.66604 3.69736 3.67646 3.68675 3.68778L3.68674 3.68778C3.53108 3.85377 3.1925 4.21481 3.1925 4.9036C3.1925 5.63538 3.72236 6.34242 3.80185 6.44848L3.80315 6.45023C3.80806 6.45677 3.81684 6.46937 3.82941 6.48739C4.0086 6.74426 4.95601 8.10248 6.35778 8.70761C6.71469 8.86157 6.99316 8.95358 7.21045 9.02255C7.56872 9.13623 7.89465 9.12021 8.15237 9.08176Z" fill="white"/>
</svg>
